<svg width="193" height="50" viewBox="0 0 193 50" fill="none" xmlns="http://www.w3.org/2000/svg">
<circle cx="25" cy="25" r="25" fill="#B9E0E8"/>
<path d="M25 6C19.9609 6 15.1282 8.00178 11.565 11.565C8.00178 15.1282 6 19.9609 6 25C6 30.0391 8.00178 34.8718 11.565 38.435C15.1282 41.9982 19.9609 44 25 44L25 25L25 6Z" fill="white"/>
<circle cx="25" cy="25" r="13" fill="#B9E0E8"/>
<path d="M25 38C26.7072 38 28.3977 37.6637 29.9749 37.0104C31.5521 36.3571 32.9852 35.3995 34.1924 34.1924C35.3995 32.9852 36.3571 31.5521 37.0104 29.9749C37.6637 28.3977 38 26.7072 38 25C38 23.2928 37.6637 21.6023 37.0104 20.0251C36.3571 18.4479 35.3995 17.0148 34.1924 15.8076C32.9852 14.6004 31.5521 13.6429 29.9749 12.9896C28.3977 12.3363 26.7072 12 25 12L25 38Z" fill="#1797B1"/>
<path d="M63.592 24.832H68.968V28H59.488V11.152H63.592V24.832ZM75.0295 11.152V28H70.9255V11.152H75.0295ZM88.9716 11.152V14.44H82.1076V17.992H87.2436V21.184H82.1076V28H78.0036V11.152H88.9716ZM95.2326 14.44V17.848H100.729V21.016H95.2326V24.712H101.449V28H91.1286V11.152H101.449V14.44H95.2326ZM108.217 24.832H113.593V28H104.113V11.152H108.217V24.832ZM126.039 25.024H119.751L118.743 28H114.447L120.543 11.152H125.295L131.391 28H127.047L126.039 25.024ZM124.983 21.856L122.895 15.688L120.831 21.856H124.983ZM143.446 19.36C144.422 19.568 145.206 20.056 145.798 20.824C146.39 21.576 146.686 22.44 146.686 23.416C146.686 24.824 146.19 25.944 145.198 26.776C144.222 27.592 142.854 28 141.094 28H133.246V11.152H140.83C142.542 11.152 143.878 11.544 144.838 12.328C145.814 13.112 146.302 14.176 146.302 15.52C146.302 16.512 146.038 17.336 145.51 17.992C144.998 18.648 144.31 19.104 143.446 19.36ZM137.35 17.968H140.038C140.71 17.968 141.222 17.824 141.574 17.536C141.942 17.232 142.126 16.792 142.126 16.216C142.126 15.64 141.942 15.2 141.574 14.896C141.222 14.592 140.71 14.44 140.038 14.44H137.35V17.968ZM140.374 24.688C141.062 24.688 141.59 24.536 141.958 24.232C142.342 23.912 142.534 23.456 142.534 22.864C142.534 22.272 142.334 21.808 141.934 21.472C141.55 21.136 141.014 20.968 140.326 20.968H137.35V24.688H140.374Z" fill="#FF6A13"/>
<path d="M68.976 33.312V43H67.702V35.776L64.482 43H63.586L60.352 35.762V43H59.078V33.312H60.45L64.034 41.32L67.618 33.312H68.976ZM78.1366 38.87C78.1366 39.1127 78.1226 39.3693 78.0946 39.64H71.9626C72.0093 40.396 72.2659 40.9887 72.7326 41.418C73.2086 41.838 73.7826 42.048 74.4546 42.048C75.0053 42.048 75.4626 41.922 75.8266 41.67C76.1999 41.4087 76.4613 41.0633 76.6106 40.634H77.9826C77.7773 41.3713 77.3666 41.9733 76.7506 42.44C76.1346 42.8973 75.3693 43.126 74.4546 43.126C73.7266 43.126 73.0733 42.9627 72.4946 42.636C71.9253 42.3093 71.4773 41.8473 71.1506 41.25C70.8239 40.6433 70.6606 39.9433 70.6606 39.15C70.6606 38.3567 70.8193 37.6613 71.1366 37.064C71.4539 36.4667 71.8973 36.0093 72.4666 35.692C73.0453 35.3653 73.7079 35.202 74.4546 35.202C75.1826 35.202 75.8266 35.3607 76.3866 35.678C76.9466 35.9953 77.3759 36.434 77.6746 36.994C77.9826 37.5447 78.1366 38.17 78.1366 38.87ZM76.8206 38.604C76.8206 38.1187 76.7133 37.7033 76.4986 37.358C76.2839 37.0033 75.9899 36.7373 75.6166 36.56C75.2526 36.3733 74.8466 36.28 74.3986 36.28C73.7546 36.28 73.2039 36.4853 72.7466 36.896C72.2986 37.3067 72.0419 37.876 71.9766 38.604H76.8206ZM79.3422 39.136C79.3422 38.352 79.5009 37.666 79.8182 37.078C80.1356 36.4807 80.5696 36.0187 81.1202 35.692C81.6802 35.3653 82.3056 35.202 82.9962 35.202C83.5936 35.202 84.1489 35.342 84.6622 35.622C85.1756 35.8927 85.5676 36.252 85.8382 36.7V32.64H87.1262V43H85.8382V41.558C85.5862 42.0153 85.2129 42.3933 84.7182 42.692C84.2236 42.9813 83.6449 43.126 82.9822 43.126C82.3009 43.126 81.6802 42.958 81.1202 42.622C80.5696 42.286 80.1356 41.8147 79.8182 41.208C79.5009 40.6013 79.3422 39.9107 79.3422 39.136ZM85.8382 39.15C85.8382 38.5713 85.7216 38.0673 85.4882 37.638C85.2549 37.2087 84.9376 36.882 84.5362 36.658C84.1442 36.4247 83.7102 36.308 83.2342 36.308C82.7582 36.308 82.3242 36.42 81.9322 36.644C81.5402 36.868 81.2276 37.1947 80.9942 37.624C80.7609 38.0533 80.6442 38.5573 80.6442 39.136C80.6442 39.724 80.7609 40.2373 80.9942 40.676C81.2276 41.1053 81.5402 41.4367 81.9322 41.67C82.3242 41.894 82.7582 42.006 83.2342 42.006C83.7102 42.006 84.1442 41.894 84.5362 41.67C84.9376 41.4367 85.2549 41.1053 85.4882 40.676C85.7216 40.2373 85.8382 39.7287 85.8382 39.15ZM89.9372 34.082C89.6945 34.082 89.4892 33.998 89.3212 33.83C89.1532 33.662 89.0692 33.4567 89.0692 33.214C89.0692 32.9713 89.1532 32.766 89.3212 32.598C89.4892 32.43 89.6945 32.346 89.9372 32.346C90.1705 32.346 90.3665 32.43 90.5252 32.598C90.6932 32.766 90.7772 32.9713 90.7772 33.214C90.7772 33.4567 90.6932 33.662 90.5252 33.83C90.3665 33.998 90.1705 34.082 89.9372 34.082ZM90.5532 35.328V43H89.2792V35.328H90.5532ZM92.2485 39.15C92.2485 38.3567 92.4072 37.666 92.7245 37.078C93.0418 36.4807 93.4805 36.0187 94.0405 35.692C94.6098 35.3653 95.2585 35.202 95.9865 35.202C96.9292 35.202 97.7038 35.4307 98.3105 35.888C98.9265 36.3453 99.3325 36.98 99.5285 37.792H98.1565C98.0258 37.3253 97.7692 36.9567 97.3865 36.686C97.0132 36.4153 96.5465 36.28 95.9865 36.28C95.2585 36.28 94.6705 36.532 94.2225 37.036C93.7745 37.5307 93.5505 38.2353 93.5505 39.15C93.5505 40.074 93.7745 40.788 94.2225 41.292C94.6705 41.796 95.2585 42.048 95.9865 42.048C96.5465 42.048 97.0132 41.9173 97.3865 41.656C97.7598 41.3947 98.0165 41.0213 98.1565 40.536H99.5285C99.3232 41.32 98.9125 41.95 98.2965 42.426C97.6805 42.8927 96.9105 43.126 95.9865 43.126C95.2585 43.126 94.6098 42.9627 94.0405 42.636C93.4805 42.3093 93.0418 41.8473 92.7245 41.25C92.4072 40.6527 92.2485 39.9527 92.2485 39.15ZM100.752 39.136C100.752 38.352 100.911 37.666 101.228 37.078C101.546 36.4807 101.98 36.0187 102.53 35.692C103.09 35.3653 103.711 35.202 104.392 35.202C105.064 35.202 105.648 35.3467 106.142 35.636C106.637 35.9253 107.006 36.2893 107.248 36.728V35.328H108.536V43H107.248V41.572C106.996 42.02 106.618 42.3933 106.114 42.692C105.62 42.9813 105.041 43.126 104.378 43.126C103.697 43.126 103.081 42.958 102.53 42.622C101.98 42.286 101.546 41.8147 101.228 41.208C100.911 40.6013 100.752 39.9107 100.752 39.136ZM107.248 39.15C107.248 38.5713 107.132 38.0673 106.898 37.638C106.665 37.2087 106.348 36.882 105.946 36.658C105.554 36.4247 105.12 36.308 104.644 36.308C104.168 36.308 103.734 36.42 103.342 36.644C102.95 36.868 102.638 37.1947 102.404 37.624C102.171 38.0533 102.054 38.5573 102.054 39.136C102.054 39.724 102.171 40.2373 102.404 40.676C102.638 41.1053 102.95 41.4367 103.342 41.67C103.734 41.894 104.168 42.006 104.644 42.006C105.12 42.006 105.554 41.894 105.946 41.67C106.348 41.4367 106.665 41.1053 106.898 40.676C107.132 40.2373 107.248 39.7287 107.248 39.15ZM111.963 32.64V43H110.689V32.64H111.963ZM119.141 41.964H122.557V43H117.867V33.242H119.141V41.964ZM123.434 39.136C123.434 38.352 123.593 37.666 123.91 37.078C124.227 36.4807 124.661 36.0187 125.212 35.692C125.772 35.3653 126.393 35.202 127.074 35.202C127.746 35.202 128.329 35.3467 128.824 35.636C129.319 35.9253 129.687 36.2893 129.93 36.728V35.328H131.218V43H129.93V41.572C129.678 42.02 129.3 42.3933 128.796 42.692C128.301 42.9813 127.723 43.126 127.06 43.126C126.379 43.126 125.763 42.958 125.212 42.622C124.661 42.286 124.227 41.8147 123.91 41.208C123.593 40.6013 123.434 39.9107 123.434 39.136ZM129.93 39.15C129.93 38.5713 129.813 38.0673 129.58 37.638C129.347 37.2087 129.029 36.882 128.628 36.658C128.236 36.4247 127.802 36.308 127.326 36.308C126.85 36.308 126.416 36.42 126.024 36.644C125.632 36.868 125.319 37.1947 125.086 37.624C124.853 38.0533 124.736 38.5573 124.736 39.136C124.736 39.724 124.853 40.2373 125.086 40.676C125.319 41.1053 125.632 41.4367 126.024 41.67C126.416 41.894 126.85 42.006 127.326 42.006C127.802 42.006 128.236 41.894 128.628 41.67C129.029 41.4367 129.347 41.1053 129.58 40.676C129.813 40.2373 129.93 39.7287 129.93 39.15ZM134.645 36.756C134.906 36.2987 135.289 35.9253 135.793 35.636C136.297 35.3467 136.871 35.202 137.515 35.202C138.206 35.202 138.826 35.3653 139.377 35.692C139.928 36.0187 140.362 36.4807 140.679 37.078C140.996 37.666 141.155 38.352 141.155 39.136C141.155 39.9107 140.996 40.6013 140.679 41.208C140.362 41.8147 139.923 42.286 139.363 42.622C138.812 42.958 138.196 43.126 137.515 43.126C136.852 43.126 136.269 42.9813 135.765 42.692C135.27 42.4027 134.897 42.034 134.645 41.586V43H133.371V32.64H134.645V36.756ZM139.853 39.136C139.853 38.5573 139.736 38.0533 139.503 37.624C139.27 37.1947 138.952 36.868 138.551 36.644C138.159 36.42 137.725 36.308 137.249 36.308C136.782 36.308 136.348 36.4247 135.947 36.658C135.555 36.882 135.238 37.2133 134.995 37.652C134.762 38.0813 134.645 38.5807 134.645 39.15C134.645 39.7287 134.762 40.2373 134.995 40.676C135.238 41.1053 135.555 41.4367 135.947 41.67C136.348 41.894 136.782 42.006 137.249 42.006C137.725 42.006 138.159 41.894 138.551 41.67C138.952 41.4367 139.27 41.1053 139.503 40.676C139.736 40.2373 139.853 39.724 139.853 39.136ZM146.178 43.126C145.459 43.126 144.806 42.9627 144.218 42.636C143.639 42.3093 143.182 41.8473 142.846 41.25C142.519 40.6433 142.356 39.9433 142.356 39.15C142.356 38.366 142.524 37.6753 142.86 37.078C143.205 36.4713 143.672 36.0093 144.26 35.692C144.848 35.3653 145.506 35.202 146.234 35.202C146.962 35.202 147.62 35.3653 148.208 35.692C148.796 36.0093 149.258 36.4667 149.594 37.064C149.939 37.6613 150.112 38.3567 150.112 39.15C150.112 39.9433 149.935 40.6433 149.58 41.25C149.235 41.8473 148.763 42.3093 148.166 42.636C147.569 42.9627 146.906 43.126 146.178 43.126ZM146.178 42.006C146.635 42.006 147.065 41.8987 147.466 41.684C147.867 41.4693 148.189 41.1473 148.432 40.718C148.684 40.2887 148.81 39.766 148.81 39.15C148.81 38.534 148.689 38.0113 148.446 37.582C148.203 37.1527 147.886 36.8353 147.494 36.63C147.102 36.4153 146.677 36.308 146.22 36.308C145.753 36.308 145.324 36.4153 144.932 36.63C144.549 36.8353 144.241 37.1527 144.008 37.582C143.775 38.0113 143.658 38.534 143.658 39.15C143.658 39.7753 143.77 40.3027 143.994 40.732C144.227 41.1613 144.535 41.4833 144.918 41.698C145.301 41.9033 145.721 42.006 146.178 42.006ZM153.061 36.574C153.285 36.1353 153.602 35.7947 154.013 35.552C154.433 35.3093 154.942 35.188 155.539 35.188V36.504H155.203C153.775 36.504 153.061 37.2787 153.061 38.828V43H151.787V35.328H153.061V36.574ZM156.534 39.136C156.534 38.352 156.692 37.666 157.01 37.078C157.327 36.4807 157.761 36.0187 158.312 35.692C158.872 35.3653 159.492 35.202 160.174 35.202C160.846 35.202 161.429 35.3467 161.924 35.636C162.418 35.9253 162.787 36.2893 163.03 36.728V35.328H164.318V43H163.03V41.572C162.778 42.02 162.4 42.3933 161.896 42.692C161.401 42.9813 160.822 43.126 160.16 43.126C159.478 43.126 158.862 42.958 158.312 42.622C157.761 42.286 157.327 41.8147 157.01 41.208C156.692 40.6013 156.534 39.9107 156.534 39.136ZM163.03 39.15C163.03 38.5713 162.913 38.0673 162.68 37.638C162.446 37.2087 162.129 36.882 161.728 36.658C161.336 36.4247 160.902 36.308 160.426 36.308C159.95 36.308 159.516 36.42 159.124 36.644C158.732 36.868 158.419 37.1947 158.186 37.624C157.952 38.0533 157.836 38.5573 157.836 39.136C157.836 39.724 157.952 40.2373 158.186 40.676C158.419 41.1053 158.732 41.4367 159.124 41.67C159.516 41.894 159.95 42.006 160.426 42.006C160.902 42.006 161.336 41.894 161.728 41.67C162.129 41.4367 162.446 41.1053 162.68 40.676C162.913 40.2373 163.03 39.7287 163.03 39.15ZM168.025 36.378V40.9C168.025 41.2733 168.104 41.5393 168.263 41.698C168.421 41.8473 168.697 41.922 169.089 41.922H170.027V43H168.879C168.169 43 167.637 42.8367 167.283 42.51C166.928 42.1833 166.751 41.6467 166.751 40.9V36.378H165.757V35.328H166.751V33.396H168.025V35.328H170.027V36.378H168.025ZM174.916 43.126C174.198 43.126 173.544 42.9627 172.956 42.636C172.378 42.3093 171.92 41.8473 171.584 41.25C171.258 40.6433 171.094 39.9433 171.094 39.15C171.094 38.366 171.262 37.6753 171.598 37.078C171.944 36.4713 172.41 36.0093 172.998 35.692C173.586 35.3653 174.244 35.202 174.972 35.202C175.7 35.202 176.358 35.3653 176.946 35.692C177.534 36.0093 177.996 36.4667 178.332 37.064C178.678 37.6613 178.85 38.3567 178.85 39.15C178.85 39.9433 178.673 40.6433 178.318 41.25C177.973 41.8473 177.502 42.3093 176.904 42.636C176.307 42.9627 175.644 43.126 174.916 43.126ZM174.916 42.006C175.374 42.006 175.803 41.8987 176.204 41.684C176.606 41.4693 176.928 41.1473 177.17 40.718C177.422 40.2887 177.548 39.766 177.548 39.15C177.548 38.534 177.427 38.0113 177.184 37.582C176.942 37.1527 176.624 36.8353 176.232 36.63C175.84 36.4153 175.416 36.308 174.958 36.308C174.492 36.308 174.062 36.4153 173.67 36.63C173.288 36.8353 172.98 37.1527 172.746 37.582C172.513 38.0113 172.396 38.534 172.396 39.15C172.396 39.7753 172.508 40.3027 172.732 40.732C172.966 41.1613 173.274 41.4833 173.656 41.698C174.039 41.9033 174.459 42.006 174.916 42.006ZM181.799 36.574C182.023 36.1353 182.341 35.7947 182.751 35.552C183.171 35.3093 183.68 35.188 184.277 35.188V36.504H183.941C182.513 36.504 181.799 37.2787 181.799 38.828V43H180.525V35.328H181.799V36.574ZM192.356 35.328L187.736 46.612H186.42L187.932 42.916L184.838 35.328H186.252L188.66 41.544L191.04 35.328H192.356Z" fill="#899A9F"/>
</svg>
